# xmcd
#
# Track frame offsets:
# 150
# 14750
# 30600
# 44350
# 57037
# 70450
# 83937
# 97425
# 110612
# 122575
# 134737
# 145350
# 155912
# 166212
# 176912
# 188100
# 201300
# 215500
# 229237
# 240587
#
# Disc length: 3355 seconds
#
#
# Revision: 0
# Processed by: cddbd v1.4PL0 Copyright (c) Steve Scherf et al.
# Submitted via: FreeRIP 2.35 
#
DISCID=3a0d1914
DTITLE=Various Artist - Piano Blues Rarities (1933-1937)
DYEAR=1998
DGENRE=Blues
TTITLE0=Whistlin' Rufus - Mam I hope Your're Satisfied
TTITLE1=Whistlin' Rufus - Sweet Jelly Rollin'
TTITLE2=Whistlin' Rufus- Tired Of Sleepin' By Myself At Night
TTITLE3=Whistlin' Rufus - Sweet Thing
TTITLE4=Red Nelson - Six Cold Feet in the Ground
TTITLE5=Red Nelson - When the Sun Goes Down
TTITLE6=Earl Thomas - Burying Ground
TTITLE7=Earl Thomas - Sugar Blues Girl
TTITLE8=Earl Thomas - Bonus Men
TTITLE9=Earl Thomas - Rent Day Blues
TTITLE10=Ben Abney (Peg Leg) - What Makes Your Heart So Hard?
TTITLE11=Ben Abney (Peg Leg) - What Make Your Heart So Hard? part 2
TTITLE12=Ben Abney (Peg Leg) - Way Down in Town
TTITLE13=Ben Abney (Peg Leg) - I'm Rattlesnakin' Daddy
TTITLE14=Ben Abney (Peg Leg) - Ev'rything I Got Belongs To You
TTITLE15=Ben Abney (Peg Leg) - Dirty Double Crosser
TTITLE16=Curtis Henry - G-Man Blues
TTITLE17=Curtis Henry - Country Jail Blues
TTITLE18=Curtis Henry - I Love My Baby
TTITLE19=Curtis Henry - The Worried Blues
EXTD=
EXTT0=
EXTT1=
EXTT2=
EXTT3=
EXTT4=
EXTT5=
EXTT6=
EXTT7=
EXTT8=
EXTT9=
EXTT10=
EXTT11=
EXTT12=
EXTT13=
EXTT14=
EXTT15=
EXTT16=
EXTT17=
EXTT18=
EXTT19=
PLAYORDER=
